<?xml version="1.0" encoding="utf-8"?>
<svg xmlns="http://www.w3.org/2000/svg" xmlns:xlink="http://www.w3.org/1999/xlink" width="133" height="20" version="1.1" viewBox="0 0 133 20">
    <linearGradient id="b" x2="0" y2="100%">
        <stop offset="0" stop-color="#6871b4" stop-opacity=".1"/>
        <stop offset="1" stop-opacity=".1"/>
    </linearGradient>
    <clipPath id="a">
        <rect width="133" height="20" rx="3" fill="#fff"/>
    </clipPath>
    <g clip-path="url(#a)">
        <path fill="#555" d="M0 0h69v20H0z"/>
        <path fill="#6871b4" d="M69 0h133v20H69z"/>
        <path fill="url(#b)" d="M0 0h133v20H0z"/>
    </g>
    <svg x="5" y="3" width="14" height="14" fill="#fff">
        <svg version="1.1" id="Layer_1" xmlns="http://www.w3.org/2000/svg" xmlns:xlink="http://www.w3.org/1999/xlink" x="0px" y="0px"
	 viewBox="0 0 128 128" style="enable-background:new 0 0 128 128;" xml:space="preserve">
<g>
	<g>
		<polygon points="65.7,96.4 65.7,128 104.9,72.9 		"/>
	</g>
	<g>
		<polygon points="103.4,62.7 65.7,0 65.7,45.6 		"/>
		<polygon points="65.7,49.2 65.7,88.1 103.1,66.2 		"/>
	</g>
	<g>
		<polygon points="24.7,62.7 62.4,0 62.4,45.6 		"/>
		<polygon points="62.4,49.2 62.4,88.1 24.9,66.2 		"/>
	</g>
	<g>
		<polygon points="62.3,96.4 62.3,128 23.1,72.9 		"/>
	</g>
</g>
</svg>

    </svg>
    <g fill="#fff" text-anchor="left" font-family="DejaVu Sans,Verdana,Geneva,sans-serif" font-size="11">
        <text x="22" y="15" fill="#010101" fill-opacity=".3">Donate</text>
        <text x="22" y="14">Donate</text>
        <text x="73" y="15" fill="#010101" fill-opacity=".3">Ethereum</text>
        <text x="73" y="14">Ethereum</text>
    </g>
</svg>