<?xml version="1.0" encoding="utf-8"?>
<svg xmlns="http://www.w3.org/2000/svg" xmlns:xlink="http://www.w3.org/1999/xlink" width="120" height="20" version="1.1" viewBox="0 0 120 20">
    <linearGradient id="b" x2="0" y2="100%">
        <stop offset="0" stop-color="#C7C7C7" stop-opacity=".1"/>
        <stop offset="1" stop-opacity=".1"/>
    </linearGradient>
    <clipPath id="a">
        <rect width="120" height="20" rx="3" fill="#fff"/>
    </clipPath>
    <g clip-path="url(#a)">
        <path fill="#555" d="M0 0h69v20H0z"/>
        <path fill="#C7C7C7" d="M69 0h120v20H69z"/>
        <path fill="url(#b)" d="M0 0h120v20H0z"/>
    </g>
    <svg x="5" y="3" width="14" height="14" fill="#fff">
        <svg version="1.1" id="Layer_1" xmlns="http://www.w3.org/2000/svg" xmlns:xlink="http://www.w3.org/1999/xlink" x="0px" y="0px"
	 viewBox="0 0 128 128" style="enable-background:new 0 0 128 128;" xml:space="preserve">
<polygon points="56.3,102.8 64.6,71.5 84.3,64.3 89.2,45.9 89,45.5 69.6,52.6 83.6,0 44,0 25.7,68.6 10.5,74.2 5.4,93.1 20.7,87.6 
	9.9,128 115.3,128 122,102.8 "/>
</svg>

    </svg>
    <g fill="#fff" text-anchor="left" font-family="DejaVu Sans,Verdana,Geneva,sans-serif" font-size="11">
        <text x="22" y="15" fill="#010101" fill-opacity=".3">Donate</text>
        <text x="22" y="14">Donate</text>
        <text x="73" y="15" fill="#010101" fill-opacity=".3">Litecoin</text>
        <text x="73" y="14">Litecoin</text>
    </g>
</svg>