<?xml version="1.0" encoding="utf-8"?>
<svg xmlns="http://www.w3.org/2000/svg" xmlns:xlink="http://www.w3.org/1999/xlink" width="119" height="20" version="1.1" viewBox="0 0 119 20">
    <linearGradient id="b" x2="0" y2="100%">
        <stop offset="0" stop-color="#ff6500" stop-opacity=".1"/>
        <stop offset="1" stop-opacity=".1"/>
    </linearGradient>
    <clipPath id="a">
        <rect width="119" height="20" rx="3" fill="#fff"/>
    </clipPath>
    <g clip-path="url(#a)">
        <path fill="#555" d="M0 0h69v20H0z"/>
        <path fill="#ff6500" d="M69 0h119v20H69z"/>
        <path fill="url(#b)" d="M0 0h119v20H0z"/>
    </g>
    <svg x="5" y="3" width="14" height="14" fill="#fff">
        <svg version="1.1" id="Layer_1" xmlns="http://www.w3.org/2000/svg" xmlns:xlink="http://www.w3.org/1999/xlink" x="0px" y="0px"
	 viewBox="0 0 128 128" style="enable-background:new 0 0 128 128;" xml:space="preserve">
<path d="M64.1,72.2c-14-14-27.8-27.8-41.7-41.6c0,18,0,35.7,0,53.7c-0.4,0-0.9,0-1.2,0c-5.6,0-11.2,0-16.8,0c-0.9,0-1.2-0.3-1.4-1
	c-2.4-7.8-3.3-15.5-2.7-23.6c1-13.7,5.8-25.8,14.4-36.3c9.6-11.7,22-19.3,37-22C71.4-2.5,89.4,2.1,105.1,15
	c11.8,9.8,19.1,22.6,21.9,37.7c1.9,10.2,1.2,20.4-1.9,30.4c-0.3,0.9-0.6,1.2-1.4,1.2c-5.6,0-11.2,0-16.8,0c-0.3,0-0.7,0-1.2,0
	c0-17.8,0-35.7,0-53.5C91.7,44.5,77.9,58.3,64.1,72.2z"/>
<path d="M9.4,97.2c8.9,0,17.7,0,26.8,0c0-11.2,0-22.5,0-33.8c9.4,9.4,18.4,18.4,27.8,27.6c9.4-9.2,18.4-18.4,27.8-27.6
	c0,11.4,0,22.5,0,33.7c8.9,0,17.8,0,27.1,0c-5.3,8.5-11.9,15.4-20.1,20.7c-8.2,5.3-17.1,8.5-26.9,9.6
	C42.1,130.9,19.2,114.2,9.4,97.2z"/>
</svg>

    </svg>
    <g fill="#fff" text-anchor="left" font-family="DejaVu Sans,Verdana,Geneva,sans-serif" font-size="11">
        <text x="22" y="15" fill="#010101" fill-opacity=".3">Donate</text>
        <text x="22" y="14">Donate</text>
        <text x="73" y="15" fill="#010101" fill-opacity=".3">Monero</text>
        <text x="73" y="14">Monero</text>
    </g>
</svg>